<svg width="165" height="19" viewBox="0 0 165 19" fill="none" xmlns="http://www.w3.org/2000/svg">
<path fill-rule="evenodd" clip-rule="evenodd" d="M0.568544 15.3789L12.3041 3.38756C14.4942 1.14971 18.0731 1.12152 20.2978 3.32458C20.3008 3.32759 20.3038 3.33061 20.3069 3.33363L29.0352 12.0165C29.1165 12.0974 29.2477 12.0966 29.3281 12.0148C29.4049 11.9367 29.4082 11.812 29.3357 11.7299L25.7682 7.69221C25.3581 7.228 25.3291 6.53764 25.6988 6.04027L27.3188 3.86096C28.3283 2.50301 30.2409 2.22534 31.5909 3.24077C31.761 3.36873 31.9174 3.51421 32.0575 3.67484L42.3379 15.4627C43.0585 16.2889 42.9768 17.5463 42.1554 18.2711C41.7945 18.5896 41.3308 18.7652 40.8507 18.7652H1.97839C0.885756 18.7652 0 17.8742 0 16.7751C0 16.2527 0.204206 15.7512 0.568544 15.3789Z" fill="url(#paint0_linear_2172_3479)"/>
<path fill-rule="evenodd" clip-rule="evenodd" d="M53.2425 18.3184L56.2397 0.44679H60.7823L64.3181 9.97516L67.8304 0.44679H72.373L75.3702 18.3184H70.8042L69.2822 8.03156L65.1142 18.3184H63.2878L59.3305 8.03156L57.8085 18.3184H53.2425ZM87.7617 11.6165L85.7702 5.80827L83.7787 11.6165H87.7617ZM89.2938 15.2134H82.6892L81.6277 18.3184H76.6979L83.4676 0.44679H88.5154L95.2852 18.3184H90.3553L89.2938 15.2134ZM107.291 5.04491C106.783 4.63629 106.274 4.33375 105.766 4.1373C105.257 3.94085 104.765 3.84262 104.288 3.84262C103.684 3.84262 103.192 3.98407 102.81 4.26696C102.429 4.54985 102.238 4.91918 102.238 5.37495C102.238 5.68928 102.333 5.9486 102.524 6.15291C102.715 6.35722 102.965 6.53403 103.275 6.68333C103.585 6.83264 103.934 6.96229 104.324 7.07231C104.713 7.18232 105.098 7.30019 105.48 7.42592C107.005 7.92885 108.122 8.60071 108.829 9.44153C109.536 10.2824 109.889 11.3786 109.889 12.7302C109.889 13.6417 109.735 14.4668 109.425 15.2055C109.115 15.9441 108.662 16.5767 108.066 17.1032C107.47 17.6297 106.739 18.0383 105.873 18.3291C105.007 18.6198 104.026 18.7652 102.929 18.7652C100.657 18.7652 98.5515 18.0973 96.6128 16.7614L98.615 13.0366C99.3142 13.6496 100.005 14.1053 100.689 14.4039C101.372 14.7025 102.047 14.8518 102.715 14.8518C103.478 14.8518 104.046 14.679 104.419 14.3332C104.793 13.9875 104.979 13.5946 104.979 13.1545C104.979 12.8873 104.932 12.6555 104.836 12.459C104.741 12.2626 104.582 12.0819 104.36 11.9168C104.137 11.7518 103.847 11.5986 103.489 11.4571C103.132 11.3157 102.699 11.1585 102.19 10.9857C101.587 10.7971 100.995 10.5888 100.415 10.3609C99.8346 10.133 99.3182 9.83051 98.8653 9.45332C98.4124 9.07613 98.047 8.60072 97.7689 8.02707C97.4908 7.45342 97.3517 6.72656 97.3517 5.84644C97.3517 4.96633 97.4987 4.16874 97.7927 3.45364C98.0867 2.73855 98.4998 2.12562 99.0322 1.61484C99.5645 1.10406 100.216 0.707232 100.987 0.424338C101.757 0.141445 102.619 0 103.573 0C104.463 0 105.392 0.1218 106.362 0.365403C107.331 0.609006 108.261 0.966546 109.151 1.43804L107.291 5.04491ZM122.338 5.04491C121.83 4.63629 121.321 4.33375 120.813 4.1373C120.304 3.94085 119.812 3.84262 119.335 3.84262C118.731 3.84262 118.238 3.98407 117.857 4.26696C117.476 4.54985 117.285 4.91918 117.285 5.37495C117.285 5.68928 117.38 5.9486 117.571 6.15291C117.762 6.35722 118.012 6.53403 118.322 6.68333C118.632 6.83264 118.981 6.96229 119.371 7.07231C119.76 7.18232 120.145 7.30019 120.527 7.42592C122.052 7.92885 123.168 8.60071 123.876 9.44153C124.583 10.2824 124.936 11.3786 124.936 12.7302C124.936 13.6417 124.781 14.4668 124.471 15.2055C124.162 15.9441 123.709 16.5767 123.113 17.1032C122.517 17.6297 121.786 18.0383 120.92 18.3291C120.054 18.6198 119.073 18.7652 117.976 18.7652C115.704 18.7652 113.598 18.0973 111.66 16.7614L113.662 13.0366C114.361 13.6496 115.052 14.1053 115.736 14.4039C116.419 14.7025 117.094 14.8518 117.762 14.8518C118.524 14.8518 119.093 14.679 119.466 14.3332C119.839 13.9875 120.026 13.5946 120.026 13.1545C120.026 12.8873 119.978 12.6555 119.883 12.459C119.788 12.2626 119.629 12.0819 119.406 11.9168C119.184 11.7518 118.894 11.5986 118.536 11.4571C118.179 11.3157 117.746 11.1585 117.237 10.9857C116.633 10.7971 116.042 10.5888 115.461 10.3609C114.881 10.133 114.365 9.83051 113.912 9.45332C113.459 9.07613 113.094 8.60072 112.816 8.02707C112.538 7.45342 112.399 6.72656 112.399 5.84644C112.399 4.96633 112.546 4.16874 112.84 3.45364C113.134 2.73855 113.547 2.12562 114.079 1.61484C114.611 1.10406 115.263 0.707232 116.034 0.424338C116.804 0.141445 117.666 0 118.62 0C119.51 0 120.439 0.1218 121.409 0.365403C122.378 0.609006 123.307 0.966546 124.197 1.43804L122.338 5.04491ZM132.017 0.44679V18.3184H127.592V0.44679H132.017ZM139.235 0.44679L143.512 11.3262L147.812 0.44679H152.817L145.345 18.3184H141.679L134.23 0.44679H139.235ZM164.766 4.38139H159.238V7.36789H164.458V11.3025H159.238V14.3838H164.766V18.3184H154.587V0.44679H164.766V4.38139Z" fill="#251E2F"/>
<defs>
<linearGradient id="paint0_linear_2172_3479" x1="11.7934" y1="18.0469" x2="29.5307" y2="5.25456" gradientUnits="userSpaceOnUse">
<stop offset="0.288159" stop-color="#FF9964"/>
<stop offset="1" stop-color="#FF6E63"/>
</linearGradient>
</defs>
</svg>
