<?xml version="1.0" encoding="utf-8"?>
<!-- Generator: Adobe Illustrator 19.2.0, SVG Export Plug-In . SVG Version: 6.00 Build 0)  -->
<svg version="1.1"
	 id="svg2168" inkscape:output_extension="org.inkscape.output.svg.inkscape" inkscape:version="0.45.1" sodipodi:docbase="C:\Users\Anne" sodipodi:docname="anarchy.svg" sodipodi:version="0.32" xmlns:cc="http://web.resource.org/cc/" xmlns:dc="http://purl.org/dc/elements/1.1/" xmlns:inkscape="http://www.inkscape.org/namespaces/inkscape" xmlns:rdf="http://www.w3.org/1999/02/22-rdf-syntax-ns#" xmlns:sodipodi="http://sodipodi.sourceforge.net/DTD/sodipodi-0.dtd" xmlns:svg="http://www.w3.org/2000/svg"
	 xmlns="http://www.w3.org/2000/svg" xmlns:xlink="http://www.w3.org/1999/xlink" x="0px" y="0px"
	 viewBox="281.875 393.375 34.958 6.375" enable-background="new 281.875 393.375 34.958 6.375" xml:space="preserve">
<g>
	<path fill="#FFFFFF" d="M314.396,394.912l2.245,0.023l-0.07,0.386l-0.28,0.107l-0.212-0.064c-0.188,0.029-0.353,0.114-0.496,0.256
		v0.902l0.07,0.451l-0.07,0.129v0.195l0.07,0.708c-0.11,0.159-0.275,0.267-0.496,0.324l-0.07-0.71l-0.072-0.193l0.072-0.453v-0.902
		l0.07-0.322l-0.07-0.064v-0.322l-0.408,0.064l-0.352-0.064L314.396,394.912z"/>
	<path fill="#FFFFFF" d="M312.442,394.594l0.923,0.061l0.183,0.122c0.163,0.242,0.246,0.527,0.247,0.853l-0.186,0.122l-0.552-0.061
		l-0.062-0.061c-0.026-0.186-0.129-0.348-0.309-0.487l-0.059,0.305c0.117,0.277,0.321,0.5,0.614,0.67
		c0.223,0.142,0.429,0.346,0.616,0.612l0.059,0.914l-0.675,0.548l-0.923-0.061l-0.183-0.122c-0.105-0.27-0.187-0.555-0.247-0.853
		l0.062-0.244c0.22,0.002,0.446,0.062,0.678,0.183c0.024,0.242,0.168,0.405,0.431,0.488l0.059-0.366l-0.307-0.488l-0.737-0.487
		c-0.119-0.272-0.18-0.598-0.186-0.977C311.976,395.006,312.161,394.783,312.442,394.594z"/>
	<path fill="#FFFFFF" d="M309.671,395.154l0.204-0.27l0.848-0.019l0.186,0.314l0.358,2.006l0.101,0.408l0.196,0.905
		c-0.134,0.044-0.284,0.072-0.451,0.084c-0.186,0.023-0.336,0.005-0.451-0.056l-0.093-0.574l-0.219,0.016l-0.196-0.007l-0.134,0.614
		l-0.706,0.016l-0.188-0.124l0.085-0.506L309.671,395.154z M310.357,395.63c-0.105,0.278-0.173,0.605-0.204,0.982l-0.067,0.736
		l0.469-0.04c-0.052-0.119-0.082-0.335-0.09-0.649L310.357,395.63z"/>
	<path fill="#FFFFFF" d="M306.879,394.833l0.678,0.035l0.699-0.063l0.191,0.063l0.315,0.042l0.067,0.337l-0.291,0.082l-0.472,0.005
		l-0.57-0.063l-0.191,0.127l0.028,0.823l0.382,0.063l0.951-0.063l0.034,0.48l-0.253,0.063l-0.951-0.063l-0.129,0.82l0.064,0.633
		l-0.191,0.063l-0.064-0.063l-0.296,0.089l-0.126-0.188l0.126-0.886l-0.064-0.567l0.064-0.19l-0.064-0.633L306.879,394.833z"/>
	<path fill="#FFFFFF" d="M302.354,395.014l0.684,0.056l-0.056,0.345v0.684l-0.056,0.171l0.056,0.059l0.401-0.687
		c0.134-0.461,0.287-0.67,0.457-0.628l0.457,0.056l-0.687,1.373l0.516,1.312l0.171,0.345l-0.613,0.056l-0.301-0.687
		c-0.069-0.178-0.164-0.349-0.286-0.513l-0.059,0.23l-0.056,0.914l-0.572,0.056c-0.058-0.036-0.096-0.093-0.115-0.171v-2.002
		l0.059-0.113l-0.115-0.743L302.354,395.014z"/>
	<path fill="#FFFFFF" d="M300.304,394.773h0.811l0.162,0.108c0.208,0.108,0.406,0.27,0.595,0.487l0.108,0.27l-0.595,0.108
		l-0.541-0.377c-0.245,0.044-0.443,0.188-0.593,0.431l-0.11,0.434l0.11,0.431c0.114,0.2,0.312,0.309,0.593,0.326
		c0.175-0.155,0.338-0.335,0.488-0.541c0.258,0.052,0.474,0.178,0.649,0.38c-0.111,0.194-0.255,0.391-0.434,0.593
		c-0.247,0.117-0.535,0.19-0.865,0.218l-0.811-0.218c-0.152-0.184-0.295-0.4-0.431-0.647l-0.11-0.867
		c0.083-0.22,0.191-0.455,0.326-0.703L300.304,394.773z"/>
	<path fill="#FFFFFF" d="M297.193,394.745l0.736,0.062c0.194,0.079,0.377,0.181,0.55,0.306c0.122,0.1,0.244,0.223,0.367,0.369
		l0.185,0.611l0.062,0.49l-0.062,0.185c-0.047,0.191-0.128,0.395-0.244,0.611l-0.369,0.429l-0.488,0.246h-0.798l-0.55-0.306
		l-0.367-0.429l-0.185-0.552l0.062-0.736l0.183-0.611l0.429-0.429L297.193,394.745z M297.56,395.297
		c-0.252,0.086-0.496,0.208-0.734,0.367c-0.063,0.234-0.104,0.499-0.123,0.796c0.042,0.267,0.124,0.533,0.246,0.798
		c0.235,0.111,0.5,0.192,0.796,0.244c0.198-0.133,0.382-0.296,0.552-0.49l0.121-0.796c-0.055-0.185-0.136-0.389-0.244-0.613
		C298.001,395.489,297.797,395.387,297.56,395.297z"/>
	<path fill="#FFFFFF" d="M294.189,394.875l0.892,0.057l-0.027,0.262v1.204l-0.068,0.135l0.068,0.066l-0.068,1.005l0.513,0.074
		l0.533-0.066l0.068,0.535l-0.068,0.199l-1.403,0.068l-0.334,0.066c-0.011-0.044-0.055-0.088-0.133-0.133l0.066-0.87v-1.337
		l0.068-0.201L294.189,394.875z"/>
	<path fill="#FFFFFF" d="M291.464,394.777l0.654,0.07h0.178v-0.07l0.537,0.07c0.189,0.03,0.387,0.099,0.593,0.209
		c0.106,0.212,0.186,0.445,0.239,0.698c-0.08,0.222-0.198,0.432-0.356,0.63l0.356,0.42c0.092,0.183,0.152,0.392,0.178,0.628
		c-0.034,0.202-0.094,0.411-0.178,0.628l-0.534,0.349l-1.252,0.07l-0.152-0.152l-0.026,0.152c-0.131-0.055-0.23-0.171-0.295-0.349
		l0.059-0.909l-0.019-0.584l-0.04-0.743l0.059-0.141l-0.059-0.068L291.464,394.777z M292.177,395.475
		c-0.03,0.155-0.049,0.341-0.059,0.56l0.059,0.209c0.137,0.034,0.296,0.058,0.476,0.07l0.18-0.07l0.117-0.209l-0.117-0.49
		L292.177,395.475z M292.238,396.804l-0.061,0.907l0.595,0.141l0.178-0.07l0.239-0.49l-0.12-0.279L292.238,396.804z"/>
	<path fill="#FFFFFF" d="M288.786,395.053l0.519,0.004l0.171-0.071l0.436,0.017c0.226-0.005,0.442,0.014,0.647,0.055l0.303,0.237
		l0.159,0.542l0.027,0.733c-0.048,0.194-0.125,0.404-0.233,0.632l-0.375,0.422l-0.623,0.221l-1.297,0.12l-0.056-0.495l0.075-0.674
		l0.011-0.135l-0.037-0.164l0.092-0.342l0.064-0.537l-0.006-0.444L288.786,395.053z M289.66,395.467l-0.383,0.161l-0.048,1.093
		l-0.131,0.526l0.054,0.189l0.664-0.058c0.334-0.32,0.525-0.602,0.572-0.846s0.048-0.451,0.001-0.623
		C290.342,395.738,290.099,395.59,289.66,395.467z"/>
	<path fill="#FFFFFF" d="M289.392,395.746c-0.055-0.003-0.159,0.009-0.331,0.055c-0.195,0.051-0.314,0.072-0.344,0.059
		c-0.013-0.006-0.03-0.008-0.054-0.008c-0.075,0-0.214,0.025-0.466,0.083c-0.024,0.005-0.097,0.028-0.171,0.04
		c-0.01-0.006-0.014-0.02-0.019-0.045c-0.046-0.234-0.182-0.477-0.285-0.64c-0.094-0.149-0.292-0.392-0.323-0.433
		c-0.053-0.069-0.175-0.136-0.197-0.159c-0.031-0.036-0.025-0.043-0.074-0.075c-0.047-0.032-0.096-0.066-0.112-0.081
		c-0.018-0.02-0.047-0.032-0.083-0.04c-0.034-0.005-0.068-0.034-0.08-0.041c-0.095-0.039-0.2-0.099-0.251-0.111
		c-0.033-0.003-0.16-0.028-0.219-0.052c-0.106-0.042-0.239-0.051-0.424-0.063l-0.007-0.011v-0.003
		c-0.089-0.203-0.13-0.279-0.175-0.342c-0.011-0.015-0.027-0.026-0.096-0.175c-0.034-0.066-0.205-0.052-0.234-0.094
		c-0.026-0.053-0.062-0.057-0.138-0.003c-0.024,0.014-0.049-0.043-0.079-0.071c-0.031-0.017-0.049,0.011-0.06,0.031
		c-0.01,0.024-0.029,0.123-0.02,0.194c0.016,0.081,0.05,0.439,0.047,0.483c0,0.005-0.002,0.019-0.007,0.039
		c-0.077,0.025-0.141,0.051-0.2,0.064c-0.077,0.005-0.148,0.013-0.159,0.015c-0.072,0.012-0.187,0.062-0.307,0.125
		c-0.11,0.059-0.249,0.124-0.31,0.148c-0.119,0.045-0.398,0.259-0.536,0.445c-0.048,0.064-0.13,0.108-0.158,0.116
		c-0.044,0.012-0.036,0.042-0.024,0.112c0,0.005,0.001,0.013-0.004,0.016c-0.017,0.015-0.024,0.023-0.047,0.03
		c-0.036,0.011-0.06,0.029-0.057,0.042s-0.01,0.035-0.032,0.05c-0.02,0.015-0.054,0.073-0.07,0.129
		c-0.016,0.056-0.095,0.187-0.141,0.293s-0.096,0.24-0.11,0.315c-0.012,0.074-0.018,0.175-0.025,0.21
		c-0.007,0.035-0.023,0.095-0.017,0.134c0.006,0.039-0.002,0.102-0.014,0.145c-0.012,0.04,0.002,0.097,0.004,0.131
		c0.002,0.06,0.011,0.106,0.004,0.143c-0.005,0.041,0,0.12,0.012,0.19c0.039,0.296,0.14,0.193-0.483,0.397
		c-0.418,0.141-0.493,0.18-0.472,0.246c0.014,0.043,0.097,0.014,0.15,0.062c0.029,0.03,0.071,0.064,0.107,0.078
		c0.073,0.016,0.118,0.024,0.133,0.075c0.01,0.047,0.006,0.12-0.014,0.161c-0.059,0.125-0.019,0.163,0.083,0.161
		c0.052-0.007,0.073,0.026,0.186-0.031c0.085-0.044,0.25-0.15,0.381-0.19l0.215-0.07c0.026-0.003,0.038,0.014,0.044,0.019
		l0.062,0.079c0.038,0.049,0.075,0.104,0.081,0.121c0.004,0.018,0.033,0.044,0.06,0.055c0.009,0.004,0.019,0.013,0.029,0.025
		c-0.022,0.067-0.055,0.111-0.061,0.119c-0.024,0.026-0.161,0.514-0.255,0.676c-0.026,0.044-0.052,0.104-0.057,0.133
		c-0.031,0.154-0.201,0.271,0.06,0.321c0.028,0.006,0.062-0.033,0.104-0.073c0.042-0.034,0.079-0.049,0.12-0.054
		c0.048-0.016,0.113-0.01,0.195-0.053c0.099-0.078,0.171-0.061,0.261-0.008c0.099,0.076,0.138,0.078,0.165-0.039v-0.003
		c0.005-0.052-0.055-0.165-0.013-0.212c0.047-0.06,0.063-0.112,0.068-0.159c0-0.055,0.003-0.078,0.016-0.11
		c0.003-0.007,0.006-0.014,0.008-0.02c0.077,0.037,0.13,0.044,0.132,0.044c0.019,0.002,0.071,0.053,0.161,0.071
		c0.091,0.018,0.193,0.046,0.226,0.062c0.033,0.016,0.078,0.025,0.099,0.018c0.021-0.004,0.032,0.008,0.046,0.014
		c0.02,0.014,0.036,0.018,0.071,0.007c0.036-0.011,0.107,0.015,0.174,0.027c0.067,0.013,0.163,0.034,0.217,0.019
		c0.092-0.003,0.129,0.001,0.181,0.003c0.093,0.004,0.323-0.021,0.655-0.102c0.087-0.029,0.141-0.061,0.212-0.065
		c0.073-0.004,0.098-0.029,0.13-0.055c0.104-0.058,0.267-0.13,0.365-0.177c0.002,0.009,0.004,0.016,0.005,0.021
		c0.001,0.007,0.018,0.059,0.027,0.073c0.067,0.077,0.146,0.022,0.253,0.062c0.082,0.03,0.108,0.04,0.173,0.097
		c0.099,0.126,0.156,0.088,0.189,0.078c0.071-0.023,0.096-0.024,0.276,0.054c0.079,0.047,0.187,0.057,0.179-0.048
		c-0.044-0.205-0.172-0.38-0.239-0.544l0,0c-0.026-0.064-0.053-0.135-0.074-0.195c-0.023-0.063-0.053-0.13-0.08-0.185
		c0.059-0.085,0.119-0.181,0.152-0.236c0.043-0.072,0.07-0.133,0.075-0.142c0.02-0.036,0.047-0.108,0.061-0.128
		c0.023-0.034,0.039-0.064,0.045-0.112s0.035-0.134,0.067-0.192c0.056-0.105,0.112-0.407,0.12-0.704
		c-0.012-0.078-0.008-0.179-0.006-0.219c0.002-0.068,0.012-0.077,0.227-0.159c0.124-0.048,0.362-0.121,0.529-0.164
		c0.226-0.059,0.34-0.106,0.457-0.169c0.003,0,0.003,0,0.005-0.003c0.101-0.106,0.065-0.071,0.118-0.12
		C289.415,395.768,289.408,395.748,289.392,395.746z M285.866,396.505c-0.042,0.016-0.105,0.037-0.202,0.069
		c-0.156,0.048-0.339,0.114-0.407,0.143c-0.125,0.039-0.345,0.076-0.35,0.055c-0.005-0.018,0.048-0.255,0.074-0.302
		c0.016-0.026,0.016-0.071,0.031-0.12c0.01-0.042,0.021-0.086,0.084-0.206c0.06-0.118,0.102-0.23,0.123-0.306
		c0.029-0.157,0.073-0.332,0.118-0.402c0.024-0.039,0.063-0.123,0.086-0.186c0.06-0.165,0.097-0.209,0.133-0.157
		c0.044,0.065,0.136,0.436,0.133,0.543c0,0.057,0.013,0.112,0.034,0.136c0.018,0.021,0.071,0.125,0.152,0.421
		c0.034,0.123,0.041,0.169,0.049,0.195C285.934,396.416,285.933,396.462,285.866,396.505L285.866,396.505z M286.399,394.857
		c0.069,0.012,0.23,0.093,0.23,0.093c0.049,0.017,0.162,0.122,0.195,0.137c0.035,0.015,0.084,0.075,0.12,0.105
		c0.036,0.047,0.02,0.057,0.112,0.122c0.061,0.056,0.117,0.148,0.164,0.23c0.034,0.06,0.082,0.155,0.127,0.217
		c0.032,0.054,0.087,0.239,0.07,0.264c-0.018,0.027-0.469,0.181-0.615,0.211c0,0-0.001,0-0.001,0
		c-0.004,0.001-0.009,0.002-0.013,0.002c-0.157,0.01-0.191-0.008-0.219-0.138c-0.01-0.05-0.055-0.126-0.081-0.183
		c-0.078-0.172-0.141-0.266-0.237-0.569c-0.053-0.167-0.071-0.363-0.105-0.408c-0.037-0.063-0.097-0.104-0.124-0.15
		c0.049,0.012,0.139,0.01,0.15,0.011C286.199,394.804,286.323,394.844,286.399,394.857z M283.569,396.435
		c0.009-0.043,0.008-0.101,0.009-0.132c0.001-0.033,0.023-0.113,0.052-0.185c0.03-0.075,0.046-0.132,0.051-0.167
		c0.003-0.021,0.018-0.036,0.04-0.051c0.015-0.01,0.034-0.027,0.037-0.053c0.003-0.021,0.006-0.05,0.028-0.068
		c0.019-0.017,0.056-0.075,0.092-0.121c0.189-0.243,0.198-0.259,0.288-0.321c0.04-0.019,0.145-0.134,0.222-0.181
		c0.075-0.046,0.128-0.093,0.191-0.122l0.091-0.04c0.015-0.018,0.093-0.043,0.117-0.05c0.042-0.022,0.098-0.045,0.163-0.066
		c-0.012,0.027-0.024,0.054-0.042,0.089l-0.024,0.086c-0.013,0.047-0.031,0.086-0.06,0.141c-0.068,0.105-0.123,0.287-0.128,0.321
		c-0.01,0.06-0.031,0.122-0.07,0.219c-0.039,0.097-0.096,0.235-0.114,0.308c-0.016,0.073-0.06,0.168-0.094,0.225
		c-0.037,0.057-0.06,0.133-0.057,0.151l-0.048,0.081c-0.003,0.034-0.013,0.076-0.055,0.146c-0.039,0.071-0.099,0.256-0.11,0.287
		c-0.013,0.05-0.036,0.078-0.244,0.148l-0.113,0.035c-0.067,0.019-0.142,0.038-0.162,0.029c-0.037-0.017-0.069-0.218-0.069-0.218
		C283.532,396.721,283.532,396.612,283.569,396.435z M286.396,398.331c-0.031,0-0.105,0.033-0.14,0.06
		c-0.025,0.019-0.119,0.036-0.16,0.055c-0.025,0.01-0.135,0.033-0.147,0.042c-0.027,0.018-0.068,0.025-0.086,0.019
		c-0.083,0.015-0.13,0.034-0.159,0.031c-0.029-0.003-0.095,0.017-0.145,0.023c-0.066,0.007-0.089,0.013-0.161,0.01
		c-0.067-0.004-0.08-0.016-0.192-0.019c-0.188-0.005-0.427-0.086-0.478-0.092c-0.041-0.005-0.117-0.033-0.167-0.056
		c-0.086-0.039-0.155-0.069-0.225-0.11c0.02-0.015,0.037-0.029,0.04-0.049c-0.005-0.023,0.091-0.259,0.146-0.355
		c0.018-0.031,0.003-0.052,0.016-0.089c0.005-0.052,0.005-0.068,0.037-0.115c0.026-0.047,0.039-0.084,0.06-0.162
		c0.002-0.009,0.005-0.02,0.008-0.03l0.069-0.005c0,0,0.024-0.001,0.035-0.006c0.038-0.013,0.063-0.055,0.059-0.066
		c-0.007-0.023,0.213-0.118,0.422-0.181c0.524-0.153,0.761-0.232,0.862-0.277c0.102-0.037,0.118,0.001,0.125,0.043
		c0.01,0.05,0.074,0.296,0.178,0.563c0.034,0.089,0.067,0.162,0.078,0.175c0.01,0.01,0.016,0.016,0.045,0.018
		c0.055,0.003,0.094,0.094,0.05,0.12c-0.018,0.01-0.01,0.047,0.021,0.115c0.026,0.057,0.041,0.114,0.037,0.131
		c0,0.001,0.009,0.024,0.023,0.06C286.551,398.248,286.438,398.313,286.396,398.331z M287.504,396.509c0,0,0.026,0.091,0.032,0.166
		c0.001,0.081-0.005,0.13-0.011,0.145c-0.005,0.012-0.007,0.035-0.004,0.071c0.004,0.042-0.002,0.102-0.031,0.16
		c-0.027,0.055-0.052,0.132-0.067,0.172l-0.03,0.101c-0.039,0.077-0.077,0.124-0.112,0.202c-0.008,0.015-0.016,0.03-0.023,0.045
		c-0.017-0.03-0.036-0.069-0.059-0.124l-0.059-0.137c-0.031-0.076-0.063-0.162-0.068-0.191s-0.056-0.101-0.097-0.17
		c-0.165-0.279-0.059-0.301,0.279-0.413c0.003-0.001,0.006-0.002,0.009-0.003c0.018-0.006,0.042-0.012,0.07-0.02
		C287.481,396.472,287.504,396.479,287.504,396.509z"/>
</g>
</svg>
