<svg xmlns="http://www.w3.org/2000/svg" xmlns:xlink="http://www.w3.org/1999/xlink" viewBox="0 0 265.31 29.02"><defs><clipPath id="a"><rect x="-280.62" y="-312.02" width="792" height="612" fill="none"/></clipPath></defs><title>disconnect-logo-dot-green</title><g clip-path="url(#a)"><rect x="29.41" y="0.76" width="7.64" height="27.5" fill="#48a57f"/><path d="M52.51,29A15.69,15.69,0,0,1,42.58,26l3.51-5.85,2.41,1.42c2.29,1.33,5.15,1.18,5.15-.92,0-3.82-10.31-3.44-10.31-12.22,0-5.35,4.2-8.4,9.17-8.4,3,0,5.46.42,8,2.52l-2.6,6C54,5,50.6,6.11,50.6,8.4c0,3.06,10.69,2.67,10.69,12.22,0,5.35-3.43,8.4-8.78,8.4" fill="#48a57f"/><path d="M79.81,29A14,14,0,0,1,65.3,14.51,14,14,0,0,1,79.81,0a13.32,13.32,0,0,1,9.55,3.44L85.54,9.93C83.67,7.64,82,6.87,79.81,6.87c-3.82,0-6.87,3.06-6.87,7.64s3,7.64,6.87,7.64a6.88,6.88,0,0,0,5.73-3.44l4.2,6.11C87.83,27.5,84.05,29,79.81,29" fill="#48a57f"/><path d="M106.54,29A14.27,14.27,0,0,1,92,14.51a14.51,14.51,0,1,1,29,0A14.27,14.27,0,0,1,106.54,29m0-22.15c-3.82,0-6.87,3.06-6.87,7.64s3,7.64,6.87,7.64,6.88-3.06,6.88-7.64-3.06-7.64-6.88-7.64" fill="#48a57f"/><polygon points="141.86 28.26 133.16 15.27 133.08 15.27 133.08 28.26 125.44 28.26 125.44 0.76 132.32 0.76 141.02 13.75 141.1 13.75 141.1 0.76 148.74 0.76 148.74 28.26 141.86 28.26" fill="#48a57f"/><polygon points="172.61 28.26 163.9 15.27 163.82 15.27 163.82 28.26 156.18 28.26 156.18 0.76 163.06 0.76 171.77 13.75 171.84 13.75 171.84 0.76 179.48 0.76 179.48 28.26 172.61 28.26" fill="#48a57f"/><polygon points="203.35 28.26 186.93 28.26 186.93 0.76 203.35 0.76 204.11 7.64 194.56 7.64 194.56 11.07 202.97 11.07 202.97 17.57 194.56 17.57 194.56 21.39 204.11 21.39 203.35 28.26" fill="#48a57f"/><path d="M223.59,29a14,14,0,0,1-14.51-14.51A14,14,0,0,1,223.59,0a13.28,13.28,0,0,1,9.54,3.44l-3.81,6.49c-1.88-2.29-3.59-3.06-5.73-3.06-3.82,0-6.88,3.06-6.88,7.64s3.06,7.64,6.88,7.64a6.9,6.9,0,0,0,5.73-3.44l4.19,6.11c-1.9,2.68-5.68,4.2-9.92,4.2" fill="#48a57f"/><polygon points="249.17 7.64 249.17 28.26 241.53 28.26 241.53 7.64 235.8 7.64 236.57 0.76 254.13 0.76 254.9 7.64 249.17 7.64" fill="#48a57f"/><path d="M24.06,14.51c0-.12,0-.22,0-.34V15C24.05,14.85,24.06,14.68,24.06,14.51Z" fill="#48a57f"/><path d="M10.69.76H0V21.38H7.64V7.64c4.2,0,8.78,1.14,8.78,6.87s-4.58,6.87-8.78,6.87v6.88h3.05a13.93,13.93,0,0,0,11.52-6.88A13.33,13.33,0,0,0,24,15v-.84A13.32,13.32,0,0,0,10.69.76Z" fill="#48a57f"/></g><rect x="257.67" y="21.38" width="7.64" height="6.88" fill="#48a57f"/></svg>