<svg width="75" height="24" viewBox="0 0 75 24" fill="none" xmlns="http://www.w3.org/2000/svg">
<path fill-rule="evenodd" clip-rule="evenodd" d="M66.2184 12.4427L71.5774 10.2177C71.2814 9.4687 70.3964 8.9457 69.3524 8.9457C68.0124 8.9457 66.1514 10.1267 66.2184 12.4427ZM72.5074 14.5997L74.5514 15.9617C73.8934 16.9387 72.3034 18.6187 69.5564 18.6187C66.1514 18.6187 63.6914 15.9847 63.6914 12.6247C63.6914 9.0597 66.1734 6.6297 69.2614 6.6297C72.3714 6.6297 73.8934 9.1047 74.3924 10.4447L74.6644 11.1257L66.6494 14.4407C67.2634 15.6437 68.2164 16.2567 69.5564 16.2567C70.8954 16.2567 71.8264 15.5987 72.5074 14.5997Z" fill="#EA4335"/>
<path fill-rule="evenodd" clip-rule="evenodd" d="M59.5195 18.2549H62.1535V0.635895H59.5195V18.2549Z" fill="#34A853"/>
<path fill-rule="evenodd" clip-rule="evenodd" d="M55.2208 12.6468C55.2208 10.5358 53.8128 8.99079 52.0198 8.99079C50.2038 8.99079 48.6818 10.5358 48.6818 12.6468C48.6818 14.7358 50.2038 16.2568 52.0198 16.2568C53.8128 16.2568 55.2208 14.7358 55.2208 12.6468ZM57.5368 6.99279V17.7558C57.5368 22.1828 54.9258 23.9998 51.8378 23.9998C48.9318 23.9998 47.1838 22.0468 46.5248 20.4578L48.8178 19.5038C49.2268 20.4798 50.2258 21.6378 51.8378 21.6378C53.8128 21.6378 55.0398 20.4128 55.0398 18.1188V17.2558H54.9478C54.3578 17.9828 53.2228 18.6178 51.7928 18.6178C48.7958 18.6178 46.0488 16.0078 46.0488 12.6468C46.0488 9.26379 48.7958 6.62979 51.7928 6.62979C53.2228 6.62979 54.3578 7.26579 54.9478 7.96979H55.0398V6.99279H57.5368Z" fill="#4285F4"/>
<path fill-rule="evenodd" clip-rule="evenodd" d="M42.0395 12.6243C42.0395 10.4673 40.5015 8.9913 38.7175 8.9913C36.9345 8.9913 35.3955 10.4673 35.3955 12.6243C35.3955 14.7583 36.9345 16.2573 38.7175 16.2573C40.5015 16.2573 42.0395 14.7583 42.0395 12.6243ZM44.6255 12.6243C44.6255 16.0753 41.9725 18.6183 38.7175 18.6183C35.4625 18.6183 32.8105 16.0753 32.8105 12.6243C32.8105 9.1503 35.4625 6.6303 38.7175 6.6303C41.9725 6.6303 44.6255 9.1503 44.6255 12.6243Z" fill="#FBBC05"/>
<path fill-rule="evenodd" clip-rule="evenodd" d="M28.7954 12.6243C28.7954 10.4673 27.2574 8.99128 25.4734 8.99128C23.6904 8.99128 22.1524 10.4673 22.1524 12.6243C22.1524 14.7583 23.6904 16.2573 25.4734 16.2573C27.2574 16.2573 28.7954 14.7583 28.7954 12.6243ZM31.3814 12.6243C31.3814 16.0753 28.7284 18.6183 25.4734 18.6183C22.2194 18.6183 19.5664 16.0753 19.5664 12.6243C19.5664 9.15028 22.2194 6.63028 25.4734 6.63028C28.7284 6.63028 31.3814 9.15028 31.3814 12.6243Z" fill="#EA4335"/>
<path fill-rule="evenodd" clip-rule="evenodd" d="M9.445 18.6184C4.314 18.6184 0 14.4414 0 9.3094C0 4.1784 4.314 0.000396729 9.445 0.000396729C12.284 0.000396729 14.304 1.1124 15.826 2.5654L14.032 4.3594C12.942 3.3374 11.466 2.5434 9.445 2.5434C5.699 2.5434 2.77 5.5634 2.77 9.3094C2.77 13.0554 5.699 16.0754 9.445 16.0754C11.875 16.0754 13.259 15.0994 14.145 14.2134C14.871 13.4874 15.349 12.4424 15.53 11.0124H9.445V8.4694H18.005C18.096 8.9234 18.142 9.4684 18.142 10.0584C18.142 11.9664 17.619 14.3274 15.939 16.0074C14.304 17.7104 12.215 18.6184 9.445 18.6184Z" fill="#4285F4"/>
</svg>
