<?xml version="1.0" encoding="utf-8"?>
<!-- Generator: Adobe Illustrator 19.2.1, SVG Export Plug-In . SVG Version: 6.00 Build 0)  -->
<svg version="1.1" id="layer" xmlns="http://www.w3.org/2000/svg" xmlns:xlink="http://www.w3.org/1999/xlink" x="0px" y="0px"
	 viewBox="0 0 652 652" style="enable-background:new 0 0 652 652;" xml:space="preserve">
<style type="text/css">
	.st0{fill:#B82629;}
</style>
<g>
	<path class="st0" d="M20,287.9h8.5v10.3c4.1-8.3,13.3-12.2,20.7-12.2c6.8,0,13.3,2.2,17.9,7.4c1.7,1.7,3.9,6.1,4.3,6.8
		c1-1.8,2.3-4.4,4.7-6.9c4.3-4.5,10.7-7.3,18-7.3c6.7,0,13.1,1.9,17.6,6.6c5.7,5.7,7.4,12.8,7.4,24.3v36.4h-9v-36
		c0-6.9-1.1-13.1-4.9-17.4c-2.7-3.4-6.8-5.5-13-5.5c-5.7,0-11.3,2.3-14.4,6.8c-3.3,4.6-3.9,8.3-3.9,15.7v36.4h-9V317
		c0.2-7.3-0.9-11.6-3.4-15.6c-3-4.3-7.7-6.8-14.4-6.9c-6.1-0.2-11.2,2.8-13.9,6.7C30.6,305,29,310,29,316.9v36.5h-9V287.9
		 M133.3,320.8c0,14.8,11.3,26,25.8,26c14.6,0,25.8-11.2,25.8-26.2c0-15-11.2-26.2-25.8-26.2c-14.5,0-25.8,11.2-25.8,26.2V320.8
		L133.3,320.8z M124.4,320.5c0-18.3,13.6-34.4,34.7-34.4c21.2,0,34.8,16.2,34.8,34.6c0,18.4-13.6,34.4-34.8,34.4
		c-21.1,0-34.7-16.1-34.7-34.4L124.4,320.5L124.4,320.5z M223.9,353.4h-9.4l-25.8-65.5h9.5l21.1,54.4l20.9-54.4h9.5L223.9,353.4
		 M256.9,280.2h9v-12.5h-9 M256.9,353.4h9v-65.5h-9 M333.1,316c-0.6-11.4-11.7-22.6-25.2-22.3c-14.1,0-24.6,10.3-25.4,22.3
		L333.1,316L333.1,316z M282.3,323.2c0.5,16.4,14.5,24.3,25.6,24.2c10.1,0,18.3-5,22.5-13.5h9.4c-3,7.1-7.7,12.4-13.3,15.9
		c-5.5,3.5-11.9,5.4-18.6,5.4c-22.8,0-34.6-18.1-34.6-34.4c0-19.2,14.9-34.7,34.4-34.7c9.3,0,17.8,3.3,24,9.3
		c7.5,7.3,11.2,17.4,10.2,27.9L282.3,323.2L282.3,323.2z M402.3,319.7c0-8-5.8-17.3-16.9-17.3s-16.9,9.3-16.9,17.3
		c0,8.5,6.3,17.2,16.9,17.2C396,336.9,402.3,328.2,402.3,319.7L402.3,319.7z M349.1,285.9h19v7.4h0.4c4-5.1,10.7-9.7,21.1-9.7
		c24,0,33,21.1,33,36.8c0,19.5-13.6,35.4-32.9,35.4c-12.2,0-17.9-5.8-20.3-8.4v28.6h-20.2L349.1,285.9L349.1,285.9z"/>
	<path class="st0" d="M451.8,336.9c12.7,0,16.9-10.7,16.9-17.3c0-8.2-5.6-17.2-17-17.2c-11.6,0-16.7,9.7-16.7,17.4
		C435,326.1,439.6,336.9,451.8,336.9L451.8,336.9z M488.9,353.4h-20.2v-7.3h-0.2c-3.4,6.6-11.8,9.6-19.7,9.6
		c-21.4,0-34-16.8-34-36.2c0-22.2,15.9-36,34-36c11.1,0,17.3,5.4,19.7,9.5h0.2v-7.2h20.2V353.4z"/>
	<path class="st0" d="M520,304.8c-0.1-1.5-0.4-5.1-6.3-5.1c-4.3,0-5.7,2.7-5.7,4.5c0,3.7,5,5.7,10.3,7.3
		c11.4,3.2,23.6,6.6,23.6,21.2c0,14.2-12.5,23-27.5,23c-10.2,0-25.7-4.6-27.5-22.4H507c0.9,6.2,6.8,6.2,7.7,6.2
		c3.4,0,7.1-1.9,7.1-5.2c0-5.2-5-5.8-17.9-10.8c-8.8-2.8-16.1-8.5-16.1-17.6c0-13.4,12.2-22.3,26.2-22.3c8.9,0,24.2,3.5,25.9,21.3
		L520,304.8"/>
	<path class="st0" d="M573.1,304.8c-0.1-1.5-0.4-5.1-6.3-5.1c-4.3,0-5.7,2.7-5.7,4.5c0,3.7,5,5.7,10.3,7.3
		c11.4,3.2,23.6,6.6,23.6,21.2c0,14.2-12.5,23-27.5,23c-10.2,0-25.7-4.6-27.5-22.4h20.1c0.9,6.2,6.8,6.2,7.7,6.2
		c3.4,0,7.1-1.9,7.1-5.2c0-5.2-5-5.8-17.9-10.8c-8.8-2.8-16.1-8.5-16.1-17.6c0-13.4,12.2-22.3,26.2-22.3c8.9,0,24.2,3.5,25.9,21.3
		L573.1,304.8 M602.1,340.5h-2.8v-1.9h7.5v1.9H604v10.8h-1.9V340.5"/>
	<path class="st0" d="M606.7,338.6h2.9l3.8,9.2l3.8-9.2h2.8v12.8h-2v-9.8l-3.9,9.8h-1.5l-3.9-9.8v9.8h-2V338.6"/>
</g>
</svg>
