<?xml version="1.0" encoding="utf-8"?>
<!-- Generator: Adobe Illustrator 19.2.1, SVG Export Plug-In . SVG Version: 6.00 Build 0)  -->
<svg version="1.1" id="layer" xmlns="http://www.w3.org/2000/svg" xmlns:xlink="http://www.w3.org/1999/xlink" x="0px" y="0px"
	 viewBox="0 0 652 652" style="enable-background:new 0 0 652 652;" xml:space="preserve">
<style type="text/css">
	.st0{fill:#363738;}
</style>
<path class="st0" d="M176.3,295.6h-11.2c-0.4,0-0.7,0.4-1.1,0.7l-15.9,37.5l-15.9-37.5c0-0.4-0.7-0.7-1.1-0.7h-11.2
	c-0.7,0-1.1,0.4-1.1,1.1V349c0,0.7,0.4,1.1,1.1,1.1h8.7c0.7,0,1.1-0.4,1.1-1.1v-32.4l13.7,32.8c0,0.4,0.7,0.7,1.1,0.7h7.2
	c0.4,0,0.7-0.4,1.1-0.7l13.7-32.8V349c0,0.7,0.4,1.1,1.1,1.1h8.7c0.7,0,1.1-0.4,1.1-1.1v-52.3C177.4,296,177,295.6,176.3,295.6
	 M243.3,295.6H235c-0.7,0-1.1,0.4-1.1,1.1v31.7c0,7.9-2.2,12.3-13.3,12.3c-11.2,0-13.3-4.7-13.3-12.3v-31.7c0-0.7-0.4-1.1-1.1-1.1
	h-9c-0.7,0-1.1,0.4-1.1,1.1v32.8c0,10.8,2.9,21.6,24.2,21.6s24.2-10.8,24.2-21.6v-32.8C244.4,296,243.7,295.6,243.3,295.6
	 M310.7,295.6h-8.3c-0.7,0-1.1,0.4-1.1,1.1V331l-26-35c-0.4-0.4-0.7-0.4-1.1-0.4H265c-0.7,0-1.1,0.4-1.1,1.1V349
	c0,0.7,0.4,1.1,1.1,1.1h8.3c0.7,0,1.1-0.4,1.1-1.1v-36l27.4,36.8c0.4,0.4,0.7,0.4,1.1,0.4h7.9c0.7,0,1.1-0.4,1.1-1.1v-52.3
	C311.8,296,311.5,295.6,310.7,295.6 M371.3,335.6c-0.4-0.4-0.4-0.4-0.7-0.4s-0.7,0-0.7,0.4c-3.2,2.9-6.1,5-13,5
	c-11.9,0-17.3-5.4-17.3-17.7c0-11.9,5.4-17.7,17.3-17.7c5.4,0,9,1.4,12.6,4.7c0.4,0.4,0.4,0.4,0.7,0.4s0.7,0,0.7-0.4l6.1-6.1
	c0.4-0.4,0.4-0.4,0.4-0.7s0-0.7-0.4-0.7c-5-5-11.9-7.6-20.5-7.6c-18.4,0-28.1,9.7-28.1,28.1c0,18.7,9,28.1,27.8,28.1
	c11.9,0,17.3-4,21.3-7.9c0.4-0.4,0.4-0.4,0.4-0.7s0-0.7-0.4-0.7L371.3,335.6 M545.8,320.9h-14.4v-15.5h14.4c7.2,0,9.7,1.8,9.7,7.9
	C555.1,319.1,552.6,320.9,545.8,320.9z M566.3,312.9c0-11.9-6.5-17.3-20.2-17.3h-24.5c-0.7,0-1.1,0.4-1.1,1.1V349
	c0,0.7,0.4,1.1,1.1,1.1h8.3c0.7,0,1.1-0.4,1.1-1.1v-18h12.3l10.8,18.4c0.4,0.4,0.7,0.7,1.1,0.7h9.4c0.4,0,0.7-0.4,1.1-0.7
	c0.4-0.4,0.4-0.7,0-1.1l-10.8-18.4C562.3,327.7,566.3,321.9,566.3,312.9z M625.4,296c-0.4-0.4-0.7-0.7-1.4-0.7h-9
	c-0.7,0-1.1,0.4-1.4,0.7l-15.1,22.7L583.6,296c-0.4-0.4-0.7-0.7-1.4-0.7h-9.4c-0.7,0-1.1,0.4-1.4,0.7c-0.4,0.4-0.4,1.1,0,1.4
	l20.9,32.1v18.7c0,0.7,0.7,1.4,1.4,1.4h8.7c0.7,0,1.4-0.7,1.4-1.4v-18.7l20.9-32.1C625.8,297.1,625.8,296.7,625.4,296 M439.4,295.6
	h-8.7c-0.7,0-1.1,0.4-1.1,1.1v23.1h-25.6v-23.1c0-0.7-0.4-1.1-1.1-1.1h-8.7c-0.7,0-1.1,0.4-1.1,4.3v48.7c0,0,0,1.8,2.2,1.8h7.9
	c0.7,0,1.1-0.4,1.1-1.1V331h25.6v18.4c0,0.7,0.4,1.1,1.1,1.1h7.9c0,0,1.8,0,1.8-1.8V300C440.5,296,439.8,295.6,439.4,295.6
	 M498.9,295.6h-37.5c-0.7,0-1.1,0.4-1.1,4.3v48.3c0,0-0.4,2.2,1.8,2.2h36.8c0.7,0,1.1-0.4,1.1-1.1v-7.9c0-0.7-0.4-1.1-1.1-1.1h-27.8
	V331h27c0.7,0,1.1-0.4,1.1-1.1v-8.7c0-0.7-0.4-1.1-1.1-1.1h-27v-14.1h27.8c0.7,0,1.1-0.4,1.1-1.1v-8.3
	C500.3,296,499.6,295.6,498.9,295.6 M73.2,327.7c0,1.1-1.1,2.2-2.2,2.2s-2.2-0.7-2.5-2.2V323v-8.3V301c0-3.2-0.4-7.9,3.6-9h0.4v13.7
	L73.2,327.7z M74.3,345l0.7,15.1v0.4c0,0.7-0.4,1.1-1.1,1.1c-0.7,0-1.1-0.4-1.1-1.1L74.3,345L74.3,345z M79.7,360.5l-0.4-5.8
	l-1.8-19.5c0-4-0.4-10.5-0.4-12.3l-0.4-12.6v-23.1c0,0,0-0.4-0.4-0.4c-0.7-0.4-2.2-0.4-2.9-0.4c-4.3,0-8.3,2.9-9.4,6.8
	c-0.7,2.5-0.4,5.4-0.4,8.3v21.6c0,2.2-0.4,4.7,0.7,6.5c1.1,2.2,2.5,4,4.7,4.7c0,0,1.8,2.2,1.8,5.4c0,1.1-0.4,2.5-0.4,4l-2.2,14.4
	v1.8c0,0.7,0,1.4,0.4,2.5c0.7,2.2,2.9,3.6,5.4,3.6c2.5,0,5-1.8,5.4-4.3L79.7,360.5L79.7,360.5z M36.1,362c-0.7,0-1.4-0.7-1.4-1.8
	l1.1-25.2v-0.4l0.4,0.4l1.4,24.5v0.4C37.5,361.2,36.8,362,36.1,362L36.1,362z M44.7,307.9v-0.7c0-5.4,0-10.8-0.4-16.2v-2.2
	c0-0.4-0.4-0.7-0.7-0.7h-2.9c-0.4,0-0.7,0.4-0.7,0.7l-0.4,19.5c-0.4,0.7-0.7,0.7-1.1,0.7h-0.4c-0.4-0.4-0.4-0.7-0.4-1.4v-0.4
	l-0.4-18.7c0-0.4-0.4-0.7-0.7-0.7h-2.9c-0.4,0-0.7,0.4-0.7,0.7l-0.4,19.5c-0.4,0.7-0.7,0.7-1.1,0.7c-0.4,0-0.7-0.4-1.1-0.7
	l-0.4-19.5c0-0.4-0.4-0.7-0.7-0.7h-2.9c-0.4,0-0.7,0.4-0.7,0.7l-0.4,19.1c0,1.1,0.4,2.2,0.7,2.9c1.1,2.5,3.2,4.3,6.1,5.4
	c-0.4,2.9-0.4,6.1-0.7,9c-0.4,3.2-0.7,6.5-1.1,10.1c-0.4,2.9-0.7,6.1-0.7,9c-0.4,2.2-0.4,4-0.7,6.1s-0.4,4.7-0.4,6.8
	c0,2.2-0.4,4.7,1.1,6.5c1.1,1.4,3.2,2.5,5,2.5c1.8,0,3.6-0.7,4.7-2.2c1.4-1.4,1.8-3.6,1.4-5.4c0-2.5-0.4-5-0.7-7.6
	c0-1.4-0.4-2.9-0.4-4.3c0-1.1-0.4-2.5-0.4-3.6c-0.7-5.8-1.1-11.9-1.8-17.7c0-1.8-0.4-3.2-0.4-5c0-0.4-0.4-4.3-0.4-4.3
	C42.2,315.1,44.7,311.5,44.7,307.9L44.7,307.9z"/>
</svg>
